<mxfile host="app.diagrams.net" agent="Mozilla/5.0 (Windows NT 10.0; Win64; x64) AppleWebKit/537.36 (KHTML, like Gecko) Chrome/124.0.0.0 Safari/537.36" version="26.0.8">
  <diagram name="PÃ¡gina-1" id="n4Vk5Nabxa0Xdwc5lGmX">
    <mxGraphModel dx="1434" dy="738" grid="1" gridSize="10" guides="1" tooltips="1" connect="1" arrows="1" fold="1" page="1" pageScale="1" pageWidth="827" pageHeight="1169" math="0" shadow="0">
      <root>
        <mxCell id="0" />
        <mxCell id="1" parent="0" />
        <mxCell id="oyOxhHCm3Vt6dHttpC2--5" style="rounded=0;orthogonalLoop=1;jettySize=auto;html=1;exitX=1;exitY=0.5;exitDx=0;exitDy=0;entryX=0;entryY=0.5;entryDx=0;entryDy=0;endArrow=none;startFill=0;" edge="1" parent="1" source="oyOxhHCm3Vt6dHttpC2--1" target="oyOxhHCm3Vt6dHttpC2--3">
          <mxGeometry relative="1" as="geometry" />
        </mxCell>
        <mxCell id="oyOxhHCm3Vt6dHttpC2--7" value="0:N" style="edgeLabel;html=1;align=center;verticalAlign=middle;resizable=0;points=[];" vertex="1" connectable="0" parent="oyOxhHCm3Vt6dHttpC2--5">
          <mxGeometry x="-0.8333" y="3" relative="1" as="geometry">
            <mxPoint x="5" y="-12" as="offset" />
          </mxGeometry>
        </mxCell>
        <mxCell id="oyOxhHCm3Vt6dHttpC2--1" value="Cliente" style="html=1;dashed=0;whiteSpace=wrap;fillColor=#d5e8d4;strokeColor=#82b366;" vertex="1" parent="1">
          <mxGeometry x="100" y="270" width="100" height="50" as="geometry" />
        </mxCell>
        <mxCell id="oyOxhHCm3Vt6dHttpC2--2" value="Producto" style="html=1;dashed=0;whiteSpace=wrap;fillColor=#d5e8d4;strokeColor=#82b366;" vertex="1" parent="1">
          <mxGeometry x="600" y="270" width="100" height="50" as="geometry" />
        </mxCell>
        <mxCell id="oyOxhHCm3Vt6dHttpC2--6" style="rounded=0;orthogonalLoop=1;jettySize=auto;html=1;exitX=1;exitY=0.5;exitDx=0;exitDy=0;entryX=0;entryY=0.5;entryDx=0;entryDy=0;endArrow=none;startFill=0;" edge="1" parent="1" source="oyOxhHCm3Vt6dHttpC2--3" target="oyOxhHCm3Vt6dHttpC2--2">
          <mxGeometry relative="1" as="geometry" />
        </mxCell>
        <mxCell id="oyOxhHCm3Vt6dHttpC2--3" value="compra" style="shape=rhombus;html=1;dashed=0;whiteSpace=wrap;perimeter=rhombusPerimeter;fillColor=#fff2cc;strokeColor=#d6b656;" vertex="1" parent="1">
          <mxGeometry x="380" y="270" width="50" height="50" as="geometry" />
        </mxCell>
        <mxCell id="oyOxhHCm3Vt6dHttpC2--8" value="1:N" style="text;html=1;align=center;verticalAlign=middle;resizable=0;points=[];autosize=1;strokeColor=none;fillColor=none;" vertex="1" parent="1">
          <mxGeometry x="560" y="268" width="40" height="30" as="geometry" />
        </mxCell>
        <mxCell id="oyOxhHCm3Vt6dHttpC2--9" value="N:N" style="text;html=1;align=center;verticalAlign=middle;resizable=0;points=[];autosize=1;strokeColor=none;fillColor=none;" vertex="1" parent="1">
          <mxGeometry x="385" y="240" width="40" height="30" as="geometry" />
        </mxCell>
      </root>
    </mxGraphModel>
  </diagram>
</mxfile>
